<?xml version="1.0" encoding="UTF-8" standalone="no"?><svg xmlns="http://www.w3.org/2000/svg" xmlns:xlink="http://www.w3.org/1999/xlink" contentScriptType="application/ecmascript" contentStyleType="text/css" height="353px" preserveAspectRatio="none" style="width:320px;height:353px;background:#FFFFFF;" version="1.1" viewBox="0 0 320 353" width="320px" zoomAndPan="magnify"><defs><filter height="300%" id="fz99wkdx64lw0" width="300%" x="-1" y="-1"><feGaussianBlur result="blurOut" stdDeviation="2.0"/><feColorMatrix in="blurOut" result="blurOut2" type="matrix" values="0 0 0 0 0 0 0 0 0 0 0 0 0 0 0 0 0 0 .4 0"/><feOffset dx="4.0" dy="4.0" in="blurOut2" result="blurOut3"/><feBlend in="SourceGraphic" in2="blurOut3" mode="normal"/></filter></defs><g><ellipse cx="181" cy="20" fill="#000000" filter="url(#fz99wkdx64lw0)" rx="10" ry="10" style="stroke:none;stroke-width:1.0;"/><rect fill="#FEFECE" filter="url(#fz99wkdx64lw0)" height="48.1016" rx="12.5" ry="12.5" style="stroke:#A80036;stroke-width:1.5;" width="237" x="62.5" y="50"/><text fill="#000000" font-family="monospace" font-size="12" lengthAdjust="spacing" textLength="217" x="72.5" y="71.1387">postProcessBeforeInitialization</text><text fill="#000000" font-family="sans-serif" font-size="12" lengthAdjust="spacing" textLength="132" x="72.5" y="85.5703">be invoked，传入 Bean</text><polygon fill="#FEFECE" filter="url(#fz99wkdx64lw0)" points="159,118.1016,203,118.1016,215,130.1016,203,142.1016,159,142.1016,147,130.1016,159,118.1016" style="stroke:#A80036;stroke-width:1.5;"/><text fill="#000000" font-family="sans-serif" font-size="11" lengthAdjust="spacing" textLength="44" x="159" y="134.2588">前置校验</text><text fill="#000000" font-family="sans-serif" font-size="11" lengthAdjust="spacing" textLength="22" x="125" y="127.7813">通过</text><text fill="#000000" font-family="sans-serif" font-size="11" lengthAdjust="spacing" textLength="33" x="215" y="127.7813">未通过</text><rect fill="#FEFECE" filter="url(#fz99wkdx64lw0)" height="34.1328" rx="12.5" ry="12.5" style="stroke:#A80036;stroke-width:1.5;" width="116" x="45" y="152.1016"/><text fill="#000000" font-family="sans-serif" font-size="12" lengthAdjust="spacing" textLength="96" x="55" y="173.7031">装配方法代理策略</text><rect fill="#FEFECE" filter="url(#fz99wkdx64lw0)" height="34.1328" rx="12.5" ry="12.5" style="stroke:#A80036;stroke-width:1.5;" width="92" x="57" y="206.2344"/><text fill="#000000" font-family="sans-serif" font-size="12" lengthAdjust="spacing" textLength="72" x="67" y="227.8359">创建代理对象</text><rect fill="#FEFECE" filter="url(#fz99wkdx64lw0)" height="34.1328" rx="12.5" ry="12.5" style="stroke:#A80036;stroke-width:1.5;" width="184" x="11" y="260.3672"/><text fill="#000000" font-family="sans-serif" font-size="12" lengthAdjust="spacing" textLength="164" x="21" y="281.9688">将代理对象返回给 Spring 容器</text><ellipse cx="103" cy="325.5" fill="#FFFFFF" filter="url(#fz99wkdx64lw0)" rx="11" ry="11" style="stroke:#000000;stroke-width:1.0;"/><ellipse cx="103" cy="325.5" fill="#000000" rx="6" ry="6" style="stroke:#7F7F7F;stroke-width:1.0;"/><rect fill="#FEFECE" filter="url(#fz99wkdx64lw0)" height="34.1328" rx="12.5" ry="12.5" style="stroke:#A80036;stroke-width:1.5;" width="88" x="215" y="152.1016"/><text fill="#000000" font-family="sans-serif" font-size="12" lengthAdjust="spacing" textLength="68" x="225" y="173.7031">返回原 Bean</text><ellipse cx="259" cy="217.2344" fill="#FFFFFF" filter="url(#fz99wkdx64lw0)" rx="11" ry="11" style="stroke:#000000;stroke-width:1.0;"/><ellipse cx="259" cy="217.2344" fill="#000000" rx="6" ry="6" style="stroke:#7F7F7F;stroke-width:1.0;"/><line style="stroke:#A80036;stroke-width:1.5;" x1="181" x2="181" y1="30" y2="50"/><polygon fill="#A80036" points="177,40,181,50,185,40,181,44" style="stroke:#A80036;stroke-width:1.0;"/><line style="stroke:#A80036;stroke-width:1.5;" x1="103" x2="103" y1="186.2344" y2="206.2344"/><polygon fill="#A80036" points="99,196.2344,103,206.2344,107,196.2344,103,200.2344" style="stroke:#A80036;stroke-width:1.0;"/><line style="stroke:#A80036;stroke-width:1.5;" x1="103" x2="103" y1="240.3672" y2="260.3672"/><polygon fill="#A80036" points="99,250.3672,103,260.3672,107,250.3672,103,254.3672" style="stroke:#A80036;stroke-width:1.0;"/><line style="stroke:#A80036;stroke-width:1.5;" x1="103" x2="103" y1="294.5" y2="314.5"/><polygon fill="#A80036" points="99,304.5,103,314.5,107,304.5,103,308.5" style="stroke:#A80036;stroke-width:1.0;"/><line style="stroke:#A80036;stroke-width:1.5;" x1="259" x2="259" y1="186.2344" y2="206.2344"/><polygon fill="#A80036" points="255,196.2344,259,206.2344,263,196.2344,259,200.2344" style="stroke:#A80036;stroke-width:1.0;"/><line style="stroke:#A80036;stroke-width:1.5;" x1="147" x2="103" y1="130.1016" y2="130.1016"/><line style="stroke:#A80036;stroke-width:1.5;" x1="103" x2="103" y1="130.1016" y2="152.1016"/><polygon fill="#A80036" points="99,142.1016,103,152.1016,107,142.1016,103,146.1016" style="stroke:#A80036;stroke-width:1.0;"/><line style="stroke:#A80036;stroke-width:1.5;" x1="215" x2="259" y1="130.1016" y2="130.1016"/><line style="stroke:#A80036;stroke-width:1.5;" x1="259" x2="259" y1="130.1016" y2="152.1016"/><polygon fill="#A80036" points="255,142.1016,259,152.1016,263,142.1016,259,146.1016" style="stroke:#A80036;stroke-width:1.0;"/><line style="stroke:#A80036;stroke-width:1.5;" x1="181" x2="181" y1="98.1016" y2="118.1016"/><polygon fill="#A80036" points="177,108.1016,181,118.1016,185,108.1016,181,112.1016" style="stroke:#A80036;stroke-width:1.0;"/><!--MD5=[123aed00256e6a68d1dfccc50110b49a]
@startuml 创建代理流程
start
:<code>
postProcessBeforeInitialization
</code>
be invoked，传入 Bean;
if (前置校验) then (通过)
    :装配方法代理策略;
    :创建代理对象;
    :将代理对象返回给 Spring 容器;
    stop
else (未通过)
    :返回原 Bean;
    stop
@enduml

PlantUML version 1.2022.0(Wed Jan 12 00:16:42 CST 2022)
(GPL source distribution)
Java Runtime: OpenJDK Runtime Environment
JVM: OpenJDK 64-Bit Server VM
Default Encoding: UTF-8
Language: zh
Country: CN
--></g></svg>