<?xml version="1.0" encoding="UTF-8" standalone="no"?><svg xmlns="http://www.w3.org/2000/svg" xmlns:xlink="http://www.w3.org/1999/xlink" contentScriptType="application/ecmascript" contentStyleType="text/css" height="330px" preserveAspectRatio="none" style="width:987px;height:330px;background:#FFFFFF;" version="1.1" viewBox="0 0 987 330" width="987px" zoomAndPan="magnify"><defs><filter height="300%" id="f145s6dlxc4ccs" width="300%" x="-1" y="-1"><feGaussianBlur result="blurOut" stdDeviation="2.0"/><feColorMatrix in="blurOut" result="blurOut2" type="matrix" values="0 0 0 0 0 0 0 0 0 0 0 0 0 0 0 0 0 0 .4 0"/><feOffset dx="4.0" dy="4.0" in="blurOut2" result="blurOut3"/><feBlend in="SourceGraphic" in2="blurOut3" mode="normal"/></filter></defs><g><rect fill="#FEFECE" filter="url(#f145s6dlxc4ccs)" height="34.1328" rx="12.5" ry="12.5" style="stroke:#A80036;stroke-width:1.5;" width="201" x="387.5" y="11"/><text fill="#000000" font-family="sans-serif" font-size="12" lengthAdjust="spacing" textLength="181" x="397.5" y="32.6016">WrappedProxyBean be invoked</text><rect fill="#FEFECE" filter="url(#f145s6dlxc4ccs)" height="33.9688" rx="12.5" ry="12.5" style="stroke:#A80036;stroke-width:1.5;" width="188" x="394" y="65.1328"/><text fill="#000000" font-family="monospace" font-size="12" lengthAdjust="spacing" textLength="168" x="404" y="86.2715">MethodInterceptor#incept</text><path d="M562.5,115.8574 L562.5,156.4785 L725.5,156.4785 L725.5,125.8574 L715.5,115.8574 L562.5,115.8574 " fill="#FBFB77" filter="url(#f145s6dlxc4ccs)" style="stroke:#A80036;stroke-width:1.0;"/><path d="M715.5,115.8574 L715.5,125.8574 L725.5,125.8574 L715.5,115.8574 " fill="#FBFB77" style="stroke:#A80036;stroke-width:1.0;"/><text fill="#000000" font-family="sans-serif" font-size="13" lengthAdjust="spacing" textLength="116" x="568.5" y="133.4258">key: method name</text><text fill="#000000" font-family="sans-serif" font-size="13" lengthAdjust="spacing" textLength="142" x="568.5" y="148.7363">value: WrappedMethod</text><rect fill="#FEFECE" filter="url(#f145s6dlxc4ccs)" height="34.1328" rx="12.5" ry="12.5" style="stroke:#A80036;stroke-width:1.5;" width="109" x="433.5" y="119.1016"/><text fill="#000000" font-family="sans-serif" font-size="12" lengthAdjust="spacing" textLength="89" x="443.5" y="140.7031">MethodStrategy</text><polygon fill="#FEFECE" filter="url(#f145s6dlxc4ccs)" points="460.5,176.4785,515.5,176.4785,527.5,188.4785,515.5,200.4785,460.5,200.4785,448.5,188.4785,460.5,176.4785" style="stroke:#A80036;stroke-width:1.5;"/><text fill="#000000" font-family="sans-serif" font-size="11" lengthAdjust="spacing" textLength="55" x="460.5" y="192.6357">matching?</text><rect fill="#FEFECE" filter="url(#f145s6dlxc4ccs)" height="34.1328" rx="12.5" ry="12.5" style="stroke:#A80036;stroke-width:1.5;" width="96" x="11" y="236.3887"/><text fill="#000000" font-family="sans-serif" font-size="12" lengthAdjust="spacing" textLength="76" x="21" y="257.9902">AsyncMethod</text><rect fill="#FEFECE" filter="url(#f145s6dlxc4ccs)" height="34.1328" rx="12.5" ry="12.5" style="stroke:#A80036;stroke-width:1.5;" width="88" x="132" y="236.3887"/><text fill="#000000" font-family="sans-serif" font-size="12" lengthAdjust="spacing" textLength="68" x="142" y="257.9902">SyncMethod</text><rect fill="#FEFECE" filter="url(#f145s6dlxc4ccs)" height="34.1328" rx="12.5" ry="12.5" style="stroke:#A80036;stroke-width:1.5;" width="129" x="336" y="236.3887"/><text fill="#000000" font-family="sans-serif" font-size="12" lengthAdjust="spacing" textLength="109" x="346" y="257.9902">ObjecProxyMethod</text><rect fill="#FEFECE" filter="url(#f145s6dlxc4ccs)" height="48.2656" rx="12.5" ry="12.5" style="stroke:#A80036;stroke-width:1.5;" width="171" x="544.5" y="236.3887"/><text fill="#000000" font-family="sans-serif" font-size="12" lengthAdjust="spacing" textLength="151" x="554.5" y="257.9902">OriginalBeanGetterMethod</text><text fill="#000000" font-family="sans-serif" font-size="12" lengthAdjust="spacing" textLength="148" x="554.5" y="272.123">OriginalBeanSetterMethod</text><rect fill="#FEFECE" filter="url(#f145s6dlxc4ccs)" height="34.1328" rx="12.5" ry="12.5" style="stroke:#A80036;stroke-width:1.5;" width="104" x="844" y="236.3887"/><text fill="#000000" font-family="sans-serif" font-size="12" lengthAdjust="spacing" textLength="84" x="854" y="257.9902">DefaultMethod</text><polygon fill="#FEFECE" filter="url(#f145s6dlxc4ccs)" points="488,294.6543,488,294.6543,500,306.6543,488,318.6543,488,318.6543,476,306.6543,488,294.6543" style="stroke:#A80036;stroke-width:1.5;"/><line style="stroke:#A80036;stroke-width:1.5;" x1="488" x2="488" y1="45.1328" y2="65.1328"/><polygon fill="#A80036" points="484,55.1328,488,65.1328,492,55.1328,488,59.1328" style="stroke:#A80036;stroke-width:1.0;"/><line style="stroke:#A80036;stroke-width:1.5;" x1="488" x2="488" y1="99.1016" y2="119.1016"/><polygon fill="#A80036" points="484,109.1016,488,119.1016,492,109.1016,488,113.1016" style="stroke:#A80036;stroke-width:1.0;"/><line style="stroke:#A80036;stroke-width:1.5;" x1="448.5" x2="59" y1="188.4785" y2="188.4785"/><line style="stroke:#A80036;stroke-width:1.5;" x1="59" x2="59" y1="188.4785" y2="236.3887"/><polygon fill="#A80036" points="55,226.3887,59,236.3887,63,226.3887,59,230.3887" style="stroke:#A80036;stroke-width:1.0;"/><text fill="#000000" font-family="sans-serif" font-size="11" lengthAdjust="spacing" textLength="63" x="59" y="216.5908">init mehods</text><line style="stroke:#A80036;stroke-width:1.5;" x1="527.5" x2="896" y1="188.4785" y2="188.4785"/><line style="stroke:#A80036;stroke-width:1.5;" x1="896" x2="896" y1="188.4785" y2="236.3887"/><polygon fill="#A80036" points="892,226.3887,896,236.3887,900,226.3887,896,230.3887" style="stroke:#A80036;stroke-width:1.0;"/><text fill="#000000" font-family="sans-serif" font-size="11" lengthAdjust="spacing" textLength="79" x="896" y="216.5908">other methods</text><line style="stroke:#A80036;stroke-width:1.5;" x1="176" x2="176" y1="188.4785" y2="236.3887"/><polygon fill="#A80036" points="172,226.3887,176,236.3887,180,226.3887,176,230.3887" style="stroke:#A80036;stroke-width:1.0;"/><text fill="#000000" font-family="sans-serif" font-size="11" lengthAdjust="spacing" textLength="150" x="176" y="211.5908">FactoryBean#getObjectType</text><line style="stroke:#A80036;stroke-width:1.5;" x1="400.5" x2="400.5" y1="188.4785" y2="236.3887"/><polygon fill="#A80036" points="396.5,226.3887,400.5,236.3887,404.5,226.3887,400.5,230.3887" style="stroke:#A80036;stroke-width:1.0;"/><text fill="#000000" font-family="sans-serif" font-size="11" lengthAdjust="spacing" textLength="124" x="400.5" y="211.5908">FactoryBean#getObject</text><line style="stroke:#A80036;stroke-width:1.5;" x1="630" x2="630" y1="188.4785" y2="236.3887"/><polygon fill="#A80036" points="626,226.3887,630,236.3887,634,226.3887,630,230.3887" style="stroke:#A80036;stroke-width:1.0;"/><text fill="#000000" font-family="sans-serif" font-size="11" lengthAdjust="spacing" textLength="204" x="630" y="211.5908">WrappedProxyBean's getter and setter</text><line style="stroke:#A80036;stroke-width:1.5;" x1="59" x2="59" y1="270.5215" y2="306.6543"/><line style="stroke:#A80036;stroke-width:1.5;" x1="59" x2="476" y1="306.6543" y2="306.6543"/><polygon fill="#A80036" points="466,302.6543,476,306.6543,466,310.6543,470,306.6543" style="stroke:#A80036;stroke-width:1.0;"/><line style="stroke:#A80036;stroke-width:1.5;" x1="896" x2="896" y1="270.5215" y2="306.6543"/><line style="stroke:#A80036;stroke-width:1.5;" x1="896" x2="500" y1="306.6543" y2="306.6543"/><polygon fill="#A80036" points="510,302.6543,500,306.6543,510,310.6543,506,306.6543" style="stroke:#A80036;stroke-width:1.0;"/><line style="stroke:#A80036;stroke-width:1.5;" x1="176" x2="176" y1="270.5215" y2="306.6543"/><polygon fill="#A80036" points="172,296.6543,176,306.6543,180,296.6543,176,300.6543" style="stroke:#A80036;stroke-width:1.0;"/><line style="stroke:#A80036;stroke-width:1.5;" x1="400.5" x2="400.5" y1="270.5215" y2="306.6543"/><polygon fill="#A80036" points="396.5,296.6543,400.5,306.6543,404.5,296.6543,400.5,300.6543" style="stroke:#A80036;stroke-width:1.0;"/><line style="stroke:#A80036;stroke-width:1.5;" x1="630" x2="630" y1="284.6543" y2="306.6543"/><polygon fill="#A80036" points="626,296.6543,630,306.6543,634,296.6543,630,300.6543" style="stroke:#A80036;stroke-width:1.0;"/><line style="stroke:#A80036;stroke-width:1.5;" x1="488" x2="488" y1="153.2344" y2="176.4785"/><polygon fill="#A80036" points="484,166.4785,488,176.4785,492,166.4785,488,170.4785" style="stroke:#A80036;stroke-width:1.0;"/><!--MD5=[f96f92ed8ee2eef8ec9494c7deed097f]
@startuml 代理方法策略匹配流程
:WrappedProxyBean be invoked;
:<code>
MethodInterceptor#incept
</code>;
:MethodStrategy;
floating note right
key: method name
value: WrappedMethod
end note
switch (matching?)
case (init mehods)
    :AsyncMethod;
case (FactoryBean#getObjectType)
    :SyncMethod;
case (FactoryBean#getObject)
    :ObjecProxyMethod;
case (WrappedProxyBean's getter and setter)
    :OriginalBeanGetterMethod
OriginalBeanSetterMethod;
case (other methods)
    :DefaultMethod;
@enduml

PlantUML version 1.2022.0(Wed Jan 12 00:16:42 CST 2022)
(GPL source distribution)
Java Runtime: OpenJDK Runtime Environment
JVM: OpenJDK 64-Bit Server VM
Default Encoding: UTF-8
Language: zh
Country: CN
--></g></svg>