<?xml version="1.0" encoding="UTF-8" standalone="no"?><svg xmlns="http://www.w3.org/2000/svg" xmlns:xlink="http://www.w3.org/1999/xlink" contentScriptType="application/ecmascript" contentStyleType="text/css" height="305px" preserveAspectRatio="none" style="width:448px;height:305px;background:#FFFFFF;" version="1.1" viewBox="0 0 448 305" width="448px" zoomAndPan="magnify"><defs><filter height="300%" id="fidffqk515ns" width="300%" x="-1" y="-1"><feGaussianBlur result="blurOut" stdDeviation="2.0"/><feColorMatrix in="blurOut" result="blurOut2" type="matrix" values="0 0 0 0 0 0 0 0 0 0 0 0 0 0 0 0 0 0 .4 0"/><feOffset dx="4.0" dy="4.0" in="blurOut2" result="blurOut3"/><feBlend in="SourceGraphic" in2="blurOut3" mode="normal"/></filter></defs><g><ellipse cx="221" cy="20" fill="#000000" filter="url(#fidffqk515ns)" rx="10" ry="10" style="stroke:none;stroke-width:1.0;"/><rect fill="#FEFECE" filter="url(#fidffqk515ns)" height="34.1328" rx="12.5" ry="12.5" style="stroke:#A80036;stroke-width:1.5;" width="191" x="125.5" y="50"/><text fill="#000000" font-family="sans-serif" font-size="12" lengthAdjust="spacing" textLength="171" x="135.5" y="71.6016">Manger#getName be invoked</text><rect fill="#FEFECE" filter="url(#fidffqk515ns)" height="34.1328" rx="12.5" ry="12.5" style="stroke:#A80036;stroke-width:1.5;" width="239" x="101.5" y="104.1328"/><text fill="#000000" font-family="sans-serif" font-size="12" lengthAdjust="spacing" textLength="219" x="111.5" y="125.7344">rpcServiceProxy#getName be invoked</text><rect fill="#FEFECE" filter="url(#fidffqk515ns)" height="34.1328" rx="12.5" ry="12.5" style="stroke:#A80036;stroke-width:1.5;" width="252" x="95" y="158.2656"/><text fill="#000000" font-family="sans-serif" font-size="12" lengthAdjust="spacing" textLength="232" x="105" y="179.8672">wait for rpcClientProxy's async-methods</text><rect fill="#FEFECE" filter="url(#fidffqk515ns)" height="34.1328" rx="12.5" ry="12.5" style="stroke:#A80036;stroke-width:1.5;" width="420" x="11" y="212.3984"/><text fill="#000000" font-family="sans-serif" font-size="12" lengthAdjust="spacing" textLength="400" x="21" y="234">return rpcClientProxy.getOriginalProxyBean().getObject().getName(...)</text><ellipse cx="221" cy="277.5313" fill="#FFFFFF" filter="url(#fidffqk515ns)" rx="11" ry="11" style="stroke:#000000;stroke-width:1.0;"/><ellipse cx="221" cy="277.5313" fill="#000000" rx="6" ry="6" style="stroke:#7F7F7F;stroke-width:1.0;"/><line style="stroke:#A80036;stroke-width:1.5;" x1="221" x2="221" y1="30" y2="50"/><polygon fill="#A80036" points="217,40,221,50,225,40,221,44" style="stroke:#A80036;stroke-width:1.0;"/><line style="stroke:#A80036;stroke-width:1.5;" x1="221" x2="221" y1="84.1328" y2="104.1328"/><polygon fill="#A80036" points="217,94.1328,221,104.1328,225,94.1328,221,98.1328" style="stroke:#A80036;stroke-width:1.0;"/><line style="stroke:#A80036;stroke-width:1.5;" x1="221" x2="221" y1="138.2656" y2="158.2656"/><polygon fill="#A80036" points="217,148.2656,221,158.2656,225,148.2656,221,152.2656" style="stroke:#A80036;stroke-width:1.0;"/><line style="stroke:#A80036;stroke-width:1.5;" x1="221" x2="221" y1="192.3984" y2="212.3984"/><polygon fill="#A80036" points="217,202.3984,221,212.3984,225,202.3984,221,206.3984" style="stroke:#A80036;stroke-width:1.0;"/><line style="stroke:#A80036;stroke-width:1.5;" x1="221" x2="221" y1="246.5313" y2="266.5313"/><polygon fill="#A80036" points="217,256.5313,221,266.5313,225,256.5313,221,260.5313" style="stroke:#A80036;stroke-width:1.0;"/><!--MD5=[ae2ef1311247d23cf5f60236d4fd3291]
@startuml getName
start
:Manger#getName be invoked;
:rpcServiceProxy#getName be invoked;
:wait for rpcClientProxy's async-methods;
:return rpcClientProxy.getOriginalProxyBean().getObject().getName(...);
stop
@enduml

PlantUML version 1.2022.0(Wed Jan 12 00:16:42 CST 2022)
(GPL source distribution)
Java Runtime: OpenJDK Runtime Environment
JVM: OpenJDK 64-Bit Server VM
Default Encoding: UTF-8
Language: zh
Country: CN
--></g></svg>