<?xml version="1.0" encoding="UTF-8" standalone="no"?><svg xmlns="http://www.w3.org/2000/svg" xmlns:xlink="http://www.w3.org/1999/xlink" contentScriptType="application/ecmascript" contentStyleType="text/css" height="349px" preserveAspectRatio="none" style="width:590px;height:349px;background:#FFFFFF;" version="1.1" viewBox="0 0 590 349" width="590px" zoomAndPan="magnify"><defs><filter height="300%" id="f6yliqn32j0m8" width="300%" x="-1" y="-1"><feGaussianBlur result="blurOut" stdDeviation="2.0"/><feColorMatrix in="blurOut" result="blurOut2" type="matrix" values="0 0 0 0 0 0 0 0 0 0 0 0 0 0 0 0 0 0 .4 0"/><feOffset dx="4.0" dy="4.0" in="blurOut2" result="blurOut3"/><feBlend in="SourceGraphic" in2="blurOut3" mode="normal"/></filter></defs><g><!--MD5=[3637e2e3ff64f8c7ec072f5df5e3a1dc]
class Expression--><rect codeLine="1" fill="#FEFECE" filter="url(#f6yliqn32j0m8)" height="60.9551" id="Expression" style="stroke:#A80036;stroke-width:1.5;" width="96" x="324.5" y="7"/><ellipse cx="339.95" cy="23" fill="#B4A7E5" rx="11" ry="11" style="stroke:#A80036;stroke-width:1.0;"/><path d="M336.3777,19.2651 L336.3777,17.1069 L343.7571,17.1069 L343.7571,19.2651 L341.2918,19.2651 L341.2918,27.3418 L343.7571,27.3418 L343.7571,29.5 L336.3777,29.5 L336.3777,27.3418 L338.8431,27.3418 L338.8431,19.2651 Z " fill="#000000"/><text fill="#000000" font-family="sans-serif" font-size="12" font-style="italic" lengthAdjust="spacing" textLength="63" x="354.05" y="27.5352">Expression</text><line style="stroke:#A80036;stroke-width:1.5;" x1="325.5" x2="419.5" y1="39" y2="39"/><line style="stroke:#A80036;stroke-width:1.5;" x1="325.5" x2="419.5" y1="47" y2="47"/><text fill="#000000" font-family="sans-serif" font-size="11" lengthAdjust="spacing" textLength="84" x="330.5" y="61.6348">double excute()</text><!--MD5=[7986c5b86cd62794daf8de32963dcc56]
class OptExpression--><rect codeLine="4" fill="#FEFECE" filter="url(#f6yliqn32j0m8)" height="86.8652" id="OptExpression" style="stroke:#A80036;stroke-width:1.5;" width="130" x="227.5" y="128"/><ellipse cx="248.8" cy="144" fill="#ADD1B2" rx="11" ry="11" style="stroke:#A80036;stroke-width:1.0;"/><path d="M251.2731,150.1431 Q250.6921,150.4419 250.0529,150.5913 Q249.4138,150.7407 248.7082,150.7407 Q246.2014,150.7407 244.8815,149.0889 Q243.5617,147.437 243.5617,144.3159 Q243.5617,141.1865 244.8815,139.5347 Q246.2014,137.8828 248.7082,137.8828 Q249.4138,137.8828 250.0612,138.0322 Q250.7087,138.1816 251.2731,138.4805 L251.2731,141.2031 Q250.6423,140.6221 250.0488,140.3523 Q249.4553,140.0825 248.8244,140.0825 Q247.4797,140.0825 246.7949,141.1492 Q246.1101,142.2158 246.1101,144.3159 Q246.1101,146.4077 246.7949,147.4744 Q247.4797,148.541 248.8244,148.541 Q249.4553,148.541 250.0488,148.2712 Q250.6423,148.0015 251.2731,147.4204 Z " fill="#000000"/><text fill="#000000" font-family="sans-serif" font-size="12" lengthAdjust="spacing" textLength="84" x="264.2" y="148.5352">OptExpression</text><line style="stroke:#A80036;stroke-width:1.5;" x1="228.5" x2="356.5" y1="160" y2="160"/><text fill="#000000" font-family="sans-serif" font-size="11" lengthAdjust="spacing" textLength="80" x="233.5" y="174.6348">Expression left</text><text fill="#000000" font-family="sans-serif" font-size="11" lengthAdjust="spacing" textLength="89" x="233.5" y="187.5898">Expression right</text><text fill="#000000" font-family="sans-serif" font-size="11" lengthAdjust="spacing" textLength="118" x="233.5" y="200.5449">OptExpression parent</text><line style="stroke:#A80036;stroke-width:1.5;" x1="228.5" x2="356.5" y1="206.8652" y2="206.8652"/><!--MD5=[4085af2710289d1b5ef8ce7a020195bf]
class NumExpression--><rect codeLine="9" fill="#FEFECE" filter="url(#f6yliqn32j0m8)" height="73.9102" id="NumExpression" style="stroke:#A80036;stroke-width:1.5;" width="122" x="392.5" y="134.5"/><ellipse cx="407.5" cy="150.5" fill="#ADD1B2" rx="11" ry="11" style="stroke:#A80036;stroke-width:1.0;"/><path d="M409.9731,156.6431 Q409.3921,156.9419 408.7529,157.0913 Q408.1138,157.2407 407.4082,157.2407 Q404.9014,157.2407 403.5815,155.5889 Q402.2617,153.937 402.2617,150.8159 Q402.2617,147.6865 403.5815,146.0347 Q404.9014,144.3828 407.4082,144.3828 Q408.1138,144.3828 408.7612,144.5322 Q409.4087,144.6816 409.9731,144.9805 L409.9731,147.7031 Q409.3423,147.1221 408.7488,146.8523 Q408.1553,146.5825 407.5244,146.5825 Q406.1797,146.5825 405.4949,147.6492 Q404.8101,148.7158 404.8101,150.8159 Q404.8101,152.9077 405.4949,153.9744 Q406.1797,155.041 407.5244,155.041 Q408.1553,155.041 408.7488,154.7712 Q409.3423,154.5015 409.9731,153.9204 Z " fill="#000000"/><text fill="#000000" font-family="sans-serif" font-size="12" lengthAdjust="spacing" textLength="90" x="421.5" y="155.0352">NumExpression</text><line style="stroke:#A80036;stroke-width:1.5;" x1="393.5" x2="513.5" y1="166.5" y2="166.5"/><text fill="#000000" font-family="sans-serif" font-size="11" lengthAdjust="spacing" textLength="68" x="398.5" y="181.1348">double value</text><line style="stroke:#A80036;stroke-width:1.5;" x1="393.5" x2="513.5" y1="187.4551" y2="187.4551"/><text fill="#000000" font-family="sans-serif" font-size="11" lengthAdjust="spacing" textLength="84" x="398.5" y="202.0898">double excute()</text><!--MD5=[b648e259c8bc7cbd94a1463eff936242]
class AddExpression--><rect codeLine="13" fill="#FEFECE" filter="url(#f6yliqn32j0m8)" height="60.9551" id="AddExpression" style="stroke:#A80036;stroke-width:1.5;" width="119" x="7" y="275"/><ellipse cx="22" cy="291" fill="#ADD1B2" rx="11" ry="11" style="stroke:#A80036;stroke-width:1.0;"/><path d="M24.4731,297.1431 Q23.8921,297.4419 23.2529,297.5913 Q22.6138,297.7407 21.9082,297.7407 Q19.4014,297.7407 18.0815,296.0889 Q16.7617,294.437 16.7617,291.3159 Q16.7617,288.1865 18.0815,286.5347 Q19.4014,284.8828 21.9082,284.8828 Q22.6138,284.8828 23.2612,285.0322 Q23.9087,285.1816 24.4731,285.4805 L24.4731,288.2031 Q23.8423,287.6221 23.2488,287.3523 Q22.6553,287.0825 22.0244,287.0825 Q20.6797,287.0825 19.9949,288.1492 Q19.3101,289.2158 19.3101,291.3159 Q19.3101,293.4077 19.9949,294.4744 Q20.6797,295.541 22.0244,295.541 Q22.6553,295.541 23.2488,295.2712 Q23.8423,295.0015 24.4731,294.4204 Z " fill="#000000"/><text fill="#000000" font-family="sans-serif" font-size="12" lengthAdjust="spacing" textLength="87" x="36" y="295.5352">AddExpression</text><line style="stroke:#A80036;stroke-width:1.5;" x1="8" x2="125" y1="307" y2="307"/><line style="stroke:#A80036;stroke-width:1.5;" x1="8" x2="125" y1="315" y2="315"/><text fill="#000000" font-family="sans-serif" font-size="11" lengthAdjust="spacing" textLength="84" x="13" y="329.6348">double excute()</text><!--MD5=[ac422a47a1162be797edc1fed4fd2e49]
class DivExpression--><rect codeLine="16" fill="#FEFECE" filter="url(#f6yliqn32j0m8)" height="60.9551" id="DivExpression" style="stroke:#A80036;stroke-width:1.5;" width="113" x="161" y="275"/><ellipse cx="176" cy="291" fill="#ADD1B2" rx="11" ry="11" style="stroke:#A80036;stroke-width:1.0;"/><path d="M178.4731,297.1431 Q177.8921,297.4419 177.2529,297.5913 Q176.6138,297.7407 175.9082,297.7407 Q173.4014,297.7407 172.0815,296.0889 Q170.7617,294.437 170.7617,291.3159 Q170.7617,288.1865 172.0815,286.5347 Q173.4014,284.8828 175.9082,284.8828 Q176.6138,284.8828 177.2612,285.0322 Q177.9087,285.1816 178.4731,285.4805 L178.4731,288.2031 Q177.8423,287.6221 177.2488,287.3523 Q176.6553,287.0825 176.0244,287.0825 Q174.6797,287.0825 173.9949,288.1492 Q173.3101,289.2158 173.3101,291.3159 Q173.3101,293.4077 173.9949,294.4744 Q174.6797,295.541 176.0244,295.541 Q176.6553,295.541 177.2488,295.2712 Q177.8423,295.0015 178.4731,294.4204 Z " fill="#000000"/><text fill="#000000" font-family="sans-serif" font-size="12" lengthAdjust="spacing" textLength="81" x="190" y="295.5352">DivExpression</text><line style="stroke:#A80036;stroke-width:1.5;" x1="162" x2="273" y1="307" y2="307"/><line style="stroke:#A80036;stroke-width:1.5;" x1="162" x2="273" y1="315" y2="315"/><text fill="#000000" font-family="sans-serif" font-size="11" lengthAdjust="spacing" textLength="84" x="167" y="329.6348">double excute()</text><!--MD5=[4841ef0a797fcacfbb8a7714a428c52e]
class SubExpression--><rect codeLine="19" fill="#FEFECE" filter="url(#f6yliqn32j0m8)" height="60.9551" id="SubExpression" style="stroke:#A80036;stroke-width:1.5;" width="116" x="309.5" y="275"/><ellipse cx="324.5" cy="291" fill="#ADD1B2" rx="11" ry="11" style="stroke:#A80036;stroke-width:1.0;"/><path d="M326.9731,297.1431 Q326.3921,297.4419 325.7529,297.5913 Q325.1138,297.7407 324.4082,297.7407 Q321.9014,297.7407 320.5815,296.0889 Q319.2617,294.437 319.2617,291.3159 Q319.2617,288.1865 320.5815,286.5347 Q321.9014,284.8828 324.4082,284.8828 Q325.1138,284.8828 325.7612,285.0322 Q326.4087,285.1816 326.9731,285.4805 L326.9731,288.2031 Q326.3423,287.6221 325.7488,287.3523 Q325.1553,287.0825 324.5244,287.0825 Q323.1797,287.0825 322.4949,288.1492 Q321.8101,289.2158 321.8101,291.3159 Q321.8101,293.4077 322.4949,294.4744 Q323.1797,295.541 324.5244,295.541 Q325.1553,295.541 325.7488,295.2712 Q326.3423,295.0015 326.9731,294.4204 Z " fill="#000000"/><text fill="#000000" font-family="sans-serif" font-size="12" lengthAdjust="spacing" textLength="84" x="338.5" y="295.5352">SubExpression</text><line style="stroke:#A80036;stroke-width:1.5;" x1="310.5" x2="424.5" y1="307" y2="307"/><line style="stroke:#A80036;stroke-width:1.5;" x1="310.5" x2="424.5" y1="315" y2="315"/><text fill="#000000" font-family="sans-serif" font-size="11" lengthAdjust="spacing" textLength="84" x="315.5" y="329.6348">double excute()</text><!--MD5=[588128515c78ebeb7a102187d1d82ebb]
class MulExpression--><rect codeLine="22" fill="#FEFECE" filter="url(#f6yliqn32j0m8)" height="60.9551" id="MulExpression" style="stroke:#A80036;stroke-width:1.5;" width="115" x="461" y="275"/><ellipse cx="476" cy="291" fill="#ADD1B2" rx="11" ry="11" style="stroke:#A80036;stroke-width:1.0;"/><path d="M478.4731,297.1431 Q477.8921,297.4419 477.2529,297.5913 Q476.6138,297.7407 475.9082,297.7407 Q473.4014,297.7407 472.0815,296.0889 Q470.7617,294.437 470.7617,291.3159 Q470.7617,288.1865 472.0815,286.5347 Q473.4014,284.8828 475.9082,284.8828 Q476.6138,284.8828 477.2612,285.0322 Q477.9087,285.1816 478.4731,285.4805 L478.4731,288.2031 Q477.8423,287.6221 477.2488,287.3523 Q476.6553,287.0825 476.0244,287.0825 Q474.6797,287.0825 473.9949,288.1492 Q473.3101,289.2158 473.3101,291.3159 Q473.3101,293.4077 473.9949,294.4744 Q474.6797,295.541 476.0244,295.541 Q476.6553,295.541 477.2488,295.2712 Q477.8423,295.0015 478.4731,294.4204 Z " fill="#000000"/><text fill="#000000" font-family="sans-serif" font-size="12" lengthAdjust="spacing" textLength="83" x="490" y="295.5352">MulExpression</text><line style="stroke:#A80036;stroke-width:1.5;" x1="462" x2="575" y1="307" y2="307"/><line style="stroke:#A80036;stroke-width:1.5;" x1="462" x2="575" y1="315" y2="315"/><text fill="#000000" font-family="sans-serif" font-size="11" lengthAdjust="spacing" textLength="84" x="467" y="329.6348">double excute()</text><!--MD5=[11800d758d9251e530c2590a8dc73251]
reverse link Expression to OptExpression--><path codeLine="26" d="M344.07,85.41 C335.66,99.28 326.51,114.38 318.28,127.96 " fill="none" id="Expression-backto-OptExpression" style="stroke:#A80036;stroke-width:1.0;stroke-dasharray:7.0,7.0;"/><polygon fill="none" points="338.19,81.6,354.55,68.12,350.17,88.86,338.19,81.6" style="stroke:#A80036;stroke-width:1.0;"/><!--MD5=[065b7fb94f477db9131b728df35f71d0]
reverse link Expression to NumExpression--><path codeLine="27" d="M401.27,85.38 C411.15,101.49 422.06,119.27 431.34,134.39 " fill="none" id="Expression-backto-NumExpression" style="stroke:#A80036;stroke-width:1.0;stroke-dasharray:7.0,7.0;"/><polygon fill="none" points="395.17,88.83,390.68,68.12,407.1,81.51,395.17,88.83" style="stroke:#A80036;stroke-width:1.0;"/><!--MD5=[c1b15887de88a375370c3b48fbfebf00]
reverse link OptExpression to AddExpression--><path codeLine="28" d="M210.07,220.64 C178.96,238.82 144.5,258.94 117.14,274.92 " fill="none" id="OptExpression-backto-AddExpression" style="stroke:#A80036;stroke-width:1.0;"/><polygon fill="none" points="206.63,214.55,227.43,210.5,213.7,226.63,206.63,214.55" style="stroke:#A80036;stroke-width:1.0;"/><!--MD5=[2ebb527dd95eb6535fd6e49cbbb5af36]
reverse link OptExpression to DivExpression--><path codeLine="29" d="M258.25,232.77 C249.96,247.36 241.46,262.33 234.38,274.79 " fill="none" id="OptExpression-backto-DivExpression" style="stroke:#A80036;stroke-width:1.0;"/><polygon fill="none" points="252.18,229.29,268.15,215.36,264.36,236.2,252.18,229.29" style="stroke:#A80036;stroke-width:1.0;"/><!--MD5=[f3e58702235765449112c00e0f1ca26e]
reverse link OptExpression to SubExpression--><path codeLine="30" d="M326.75,232.77 C335.04,247.36 343.54,262.33 350.62,274.79 " fill="none" id="OptExpression-backto-SubExpression" style="stroke:#A80036;stroke-width:1.0;"/><polygon fill="none" points="320.64,236.2,316.85,215.36,332.82,229.29,320.64,236.2" style="stroke:#A80036;stroke-width:1.0;"/><!--MD5=[ca2f41e986996843b22ea8b57387c21e]
reverse link OptExpression to MulExpression--><path codeLine="31" d="M374.93,220.64 C406.04,238.82 440.5,258.94 467.86,274.92 " fill="none" id="OptExpression-backto-MulExpression" style="stroke:#A80036;stroke-width:1.0;"/><polygon fill="none" points="371.3,226.63,357.57,210.5,378.37,214.55,371.3,226.63" style="stroke:#A80036;stroke-width:1.0;"/><!--MD5=[40f45eb02808ebf9ef46b3cff0e1c4de]
@startuml 计算器
interface Expression {
    double excute()
}
class OptExpression {
    Expression left
    Expression right
    OptExpression parent
}
class NumExpression {
    double excute()
    double value
}
class AddExpression {
    double excute()
}
class DivExpression {
    double excute()
}
class SubExpression {
    double excute()
}
class MulExpression {
    double excute()
}

Expression <|.. OptExpression
Expression <|.. NumExpression
OptExpression <|- - AddExpression
OptExpression <|- - DivExpression
OptExpression <|- - SubExpression
OptExpression <|- - MulExpression
@enduml

PlantUML version 1.2022.0(Wed Jan 12 00:16:42 CST 2022)
(GPL source distribution)
Java Runtime: OpenJDK Runtime Environment
JVM: OpenJDK 64-Bit Server VM
Default Encoding: UTF-8
Language: zh
Country: CN
--></g></svg>